<?xml version="1.0" encoding="UTF-8"?>
<svg id="Layer_1" xmlns="http://www.w3.org/2000/svg" version="1.1" viewBox="0 0 807.2 808.4">
  <!-- Generator: Adobe Illustrator 29.1.0, SVG Export Plug-In . SVG Version: 2.1.0 Build 142)  -->
  <defs>
    <style>
      .st0 {
        fill: #b18729;
      }

      .st1 {
        fill: #fff;
      }

      .st2 {
        fill: #46c5e2;
      }

      .st3 {
        fill: #73c48e;
      }

      .st4 {
        fill: #abd038;
      }

      .st5 {
        fill: #f16566;
      }

      .st6 {
        fill: #ffc808;
      }

      .st7 {
        fill: #030503;
      }
    </style>
  </defs>
  <g>
    <g>
      <path class="st3" d="M149.1,609.6l15.2-27.6c30.8-51.7,81-85.9,139.2-100.2l95.8,110.9c2.8,1.1,6,1.1,9,.5,10.9-2.2,57.3-68.5,69.7-79.2,23.4,7.7,47.3,6,70.3.5l60.6,94h-253.3"/>
      <path class="st2" d="M91.8,582.5l-2.5-.5,35.9-168.3,122.9.5,32.9,39c-67.6,18.2-126.6,65.9-156.4,129.5h-2c0,0-31,0-31,0Z"/>
      <path class="st0" d="M707.7,537.6h-104.4l-25.5-37.5c31.8-18.3,59.8-48.7,64.9-86.4l39.8,1.7,25.2,122.2Z"/>
      <path class="st4" d="M605.8,414.7c-11.6,42-59.3,72.6-101.9,68.4l55.4-68.4h46.5Z"/>
      <polygon class="st6" points="723.7 608.5 649.3 608.5 623.8 569.6 715.2 569.6 723.7 608.5"/>
    </g>
    <g>
      <path class="st7" d="M586.8,381.7h112.4c1.3,0,7,4.5,8,6l49.5,220.7,37,.5c6,1.8,9.3,6.5,10.5,12.5,4.4,22.8,3.5,145,.5,170.4-.4,3-.8,6.1-2.2,8.8l-5.5,5.5-779.1,2.2-10-3c-3.5-2.7-4.9-6.3-5.5-10.5-7.5-51.2,5.4-121.4.2-174.6,3.7-18.9,35-9.4,48.6-11.9l50.1-222.2c.7-.8,7.1-4.5,7.5-4.5h112.4C88.7,224.9,207.1-4.2,409.6,0c195.2,4.2,308.9,230.9,177.3,381.7ZM404,551.6c47.9-57.9,98.4-114.2,144.8-173.4,56-71.5,86.3-131.9,45.5-223.3-73-163.8-311.7-164.5-381.6,1.1-53.3,126.2,28.9,201.7,102.4,290.1,29.4,35.3,60.1,69.6,88.9,105.4ZM91.8,582.5h32.9c29.8-63.4,88.8-111.2,156.4-129.4l-32.9-39-122.9-.5-35.9,168.3,2.5.5ZM707.7,537.6l-25.2-122.2-39.8-1.7c-5.1,37.7-33.1,68.1-64.9,86.4l25.5,37.5h104.4ZM605.8,414.7h-46.5l-55.4,68.4c42.5,4.2,90.3-26.4,101.9-68.4ZM355.6,608.5h253.3l-60.6-94c-23,5.6-46.9,7.2-70.3-.5-12.4,10.7-58.8,77-69.7,79.2s-6.1.6-9-.5l-95.8-110.9c-58.2,14.2-108.4,48.5-139.2,100.2l-13.8,26.9M723.7,608.5l-8.5-39h-91.4l25.5,39h74.4ZM62.4,749.4v-82.4l1.5-1.5h17l1.5,1.5v16l19.9.5h10.6s-.9-46.1-.9-46.1l-81,1.1,1.7,138.1,79.8-.7v-80.5h-38.1l-1,24.5,8.8,4.1v23.7s-19.8,1.6-19.8,1.6ZM190.2,636.5h-62.4l-2.3,138.2,65.8,1.7v-27h-34.5l-1.5-1.5v-24l1.5-1.5h30l1.5-1.5v-26l-1.5-1.5h-30l-1.5-1.5v-25l1.5-1.5h33l1.5-1.5v-25l-1-2.5ZM285.2,636.5h-81v140.9h81v-140.9ZM362.1,665.5l-1.7-28.8-63.3,2.3v80.9l39,2.5v26h-34.5c-1.8.3-4.5,4.1-4.5,5.5v22.5l2.5,1h61.9l2.5-2.5v-78.9l-36-3v-27.5h34ZM435,637.5l-2.5-1h-59.9l-1.5,1.5v26l16,4,.5,107.4,29.5,1v-110.9l18-3.5v-24.5ZM439.5,777.4h24l4.5-39h22.5l7,38h25l-11.4-139.3c-2-2.1-54-1.5-58.6-.6s-4.8,0-5.4,3.6l-10,135.6,2.5,1.7ZM593.8,664.5v-26.5l-1.5-1.5h-63.9l-1.5,1.5v26l1.5,1.5h16.5v109.4l2.5,2.5h26l3-111.9h15l2.5-1ZM681.7,637.5l-74,.4,1.6,84.5h42.5l1,2.5v22l-1.5,1.5h-41l-3.6,4.4,2.3,23.8,71.3-.2-1.1-83h-41l-1.5-1.5v-25l1.5-1.5h42l1.5-1.5v-26.5ZM722.7,774.9v-51.4l8.1.6,19.3,52.4,23.1,1,4.2-3.3-18.7-55.2,16.9-17-1-63.8-80.4-.6-1.1,137c1.5,4.9,28.2,3.8,29.5.4Z"/>
      <g>
        <polygon class="st1" points="62.4 749.4 82.2 747.7 82.2 724 73.3 719.9 74.3 695.4 112.3 695.4 112.4 776 32.6 776.6 30.9 638.5 111.9 637.4 112.8 683.4 106.8 683.7 82.3 682.9 82.3 667 80.8 665.5 63.8 665.5 62.4 667 62.4 749.4"/>
        <path class="st1" d="M285.2,636.5v140.9h-81v-140.9h81ZM256.2,665.5h-22v83.9h22v-83.9Z"/>
        <polygon class="st1" points="681.7 637.5 681.7 664 680.2 665.5 638.3 665.5 636.8 667 636.8 691.9 638.3 693.4 679.2 693.4 680.4 776.5 609 776.6 606.8 752.8 610.3 748.4 651.3 748.4 652.8 746.9 652.8 724.9 651.8 722.4 609.3 722.4 607.7 637.9 681.7 637.5"/>
        <path class="st1" d="M362.1,665.5h-34v27.5l36,3v78.9l-2.5,2.5h-61.9l-2.5-1v-22.5c0-1.4,2.7-5.2,4.5-5.5h34.5c0,0,0-25.9,0-25.9l-39-2.5v-80.9l63.3-2.3,1.7,28.8Z"/>
        <polygon class="st1" points="190.2 636.5 191.2 639 191.2 664 189.7 665.5 156.8 665.5 155.3 667 155.3 691.9 156.8 693.4 186.7 693.4 188.2 694.9 188.2 720.9 186.7 722.4 156.8 722.4 155.3 723.9 155.3 747.9 156.8 749.4 191.2 749.4 191.2 776.4 125.5 774.7 127.8 636.5 190.2 636.5"/>
        <polygon class="st1" points="593.8 664.5 591.3 665.5 576.3 665.5 573.4 777.4 547.4 777.4 544.9 774.9 544.9 665.5 528.4 665.5 526.9 664 526.9 638 528.4 636.5 592.3 636.5 593.8 638 593.8 664.5"/>
        <polygon class="st1" points="435 637.5 435 662 417 665.5 417 776.4 387.5 775.4 387 668 371 664 371 638 372.5 636.5 432.5 636.5 435 637.5"/>
        <rect class="st7" x="234.2" y="665.5" width="22" height="83.9"/>
        <g>
          <path class="st1" d="M722.7,774.9c-1.4,3.4-28,4.4-29.5-.4l1.1-137,80.4.6,1,63.8-16.9,17,18.7,55.2-4.2,3.3-23.1-1-19.3-52.4-8.1-.6v51.4ZM745.7,665.5l-24,1.5v26l1,2.5h23v-30Z"/>
          <polygon class="st7" points="745.7 665.5 745.7 695.4 722.7 695.4 721.7 692.9 721.7 667 745.7 665.5"/>
        </g>
        <g>
          <path class="st1" d="M439.5,777.4l-2.5-1.7,10-135.6c.6-3.6,2.7-3.1,5.4-3.6,4.6-.8,56.6-1.5,58.6.6l11.4,139.3h-25l-7-38h-22.5l-4.5,39h-24ZM472,710.4h14.5l2.5-1.7-2.9-40.6-10.6-1.3-3.4,43.6Z"/>
          <polygon class="st7" points="472 710.4 475.4 666.8 486 668.1 488.9 708.7 486.4 710.4 472 710.4"/>
        </g>
      </g>
    </g>
  </g>
  <g>
    <path class="st5" d="M404,551.6c-28.8-35.8-59.5-70.1-88.9-105.4-73.5-88.4-155.7-163.9-102.4-290.1,69.9-165.6,308.6-164.9,381.6-1.1,40.7,91.4,10.5,151.8-45.5,223.3-46.4,59.2-96.9,115.5-144.8,173.4ZM526.7,236.8c0-67.7-54.9-122.6-122.6-122.6s-122.6,54.9-122.6,122.6,54.9,122.6,122.6,122.6,122.6-54.9,122.6-122.6Z"/>
    <path class="st5" d="M526.7,236.8c0,67.7-54.9,122.6-122.6,122.6s-122.6-54.9-122.6-122.6,54.9-122.6,122.6-122.6,122.6,54.9,122.6,122.6ZM494.7,236.7c0-50.1-40.6-90.7-90.7-90.7s-90.7,40.6-90.7,90.7,40.6,90.7,90.7,90.7,90.7-40.6,90.7-90.7Z"/>
  </g>
</svg>