<?xml version="1.0" encoding="UTF-8"?>
<svg id="Layer_1" xmlns="http://www.w3.org/2000/svg" version="1.1" viewBox="0 0 769 159.3">
  <!-- Generator: Adobe Illustrator 29.1.0, SVG Export Plug-In . SVG Version: 2.1.0 Build 142)  -->
  <defs>
    <style>
      .st0 {
        fill: #fff;
      }

      .st1 {
        fill: #030503;
      }
    </style>
  </defs>
  <rect x="10.2" y="19.4" width="758.8" height="139.9"/>
  <g>
    <polygon class="st0" points="34.4 118.3 54.3 116.6 54.3 93 45.4 88.8 46.4 64.3 84.4 64.3 84.5 144.9 4.7 145.5 3 7.4 84 6.3 84.9 52.3 78.9 52.6 54.4 51.8 54.4 35.9 52.9 34.4 35.9 34.4 34.4 35.9 34.4 118.3"/>
    <path class="st0" d="M257.3,5.4v140.9h-81V5.4h81ZM228.3,34.4h-22v83.9h22V34.4Z"/>
    <polygon class="st0" points="653.8 6.4 653.8 32.9 652.3 34.4 610.4 34.4 608.9 35.9 608.9 60.8 610.4 62.3 651.3 62.3 652.4 145.4 581.1 145.5 578.9 121.7 582.4 117.3 623.4 117.3 624.9 115.8 624.9 93.8 623.9 91.3 581.4 91.3 579.8 6.8 653.8 6.4"/>
    <path class="st0" d="M334.2,34.4h-34v27.5l36,3v78.9l-2.5,2.5h-61.9l-2.5-1v-22.5c0-1.4,2.7-5.2,4.5-5.5h34.5c0,0,0-25.9,0-25.9l-39-2.5V7.9l63.3-2.3,1.7,28.8Z"/>
    <polygon class="st0" points="162.3 5.4 163.3 7.9 163.3 32.9 161.8 34.4 128.9 34.4 127.4 35.9 127.4 60.8 128.9 62.3 158.8 62.3 160.3 63.8 160.3 89.8 158.8 91.3 128.9 91.3 127.4 92.8 127.4 116.8 128.9 118.3 163.3 118.3 163.3 145.3 97.6 143.6 99.9 5.4 162.3 5.4"/>
    <polygon class="st0" points="565.9 33.4 563.4 34.4 548.4 34.4 545.5 146.3 519.5 146.3 517 143.8 517 34.4 500.5 34.4 499 32.9 499 6.9 500.5 5.4 564.4 5.4 565.9 6.9 565.9 33.4"/>
    <polygon class="st0" points="407.1 6.4 407.1 30.9 389.1 34.4 389.1 145.3 359.6 144.3 359.1 36.9 343.1 32.9 343.1 6.9 344.6 5.4 404.6 5.4 407.1 6.4"/>
    <rect class="st1" x="206.3" y="34.4" width="22" height="83.9"/>
    <g>
      <path class="st0" d="M694.8,143.8c-1.4,3.4-28,4.4-29.5-.4l1.1-137,80.4.6,1,63.8-16.9,17,18.7,55.2-4.2,3.3-23.1-1-19.3-52.4-8.1-.6v51.4ZM717.8,34.4l-24,1.5v26l1,2.5h23v-30Z"/>
      <polygon class="st1" points="717.8 34.4 717.8 64.3 694.8 64.3 693.8 61.8 693.8 35.9 717.8 34.4"/>
    </g>
    <g>
      <path class="st0" d="M411.6,146.3l-2.5-1.7,10-135.6c.6-3.6,2.7-3.1,5.4-3.6,4.6-.8,56.6-1.5,58.6.6l11.4,139.3h-25l-7-38h-22.5l-4.5,39h-24ZM444,79.3h14.5l2.5-1.7-2.9-40.6-10.6-1.3-3.4,43.6Z"/>
      <polygon class="st1" points="444 79.3 447.5 35.7 458.1 37 461 77.6 458.5 79.3 444 79.3"/>
    </g>
  </g>
</svg>